<svg width="280" height="75" viewBox="0 0 280 75" fill="none" xmlns="http://www.w3.org/2000/svg">
<path fill-rule="evenodd" clip-rule="evenodd" d="M103.758 9.75818H98.5666L95.8805 15.0577L95.1428 14.9606C95.3794 12.7964 95.5047 10.7016 95.5047 8.68994H115.352C115.352 10.7016 115.463 12.7964 115.713 14.9606L114.976 15.0577L112.248 9.75818H107.098V30.0685C107.098 30.5402 107.265 30.887 107.599 31.1367L110.522 31.2755V32.1495H100.292V31.2755L103.215 31.1367C103.577 30.8731 103.758 30.5124 103.758 30.0685V9.75818ZM130.731 27.4326C129.298 30.8732 126.946 32.5934 123.703 32.5934L123.689 32.5796C122.172 32.5796 120.822 32.2327 119.639 31.5252C118.47 30.8315 117.537 29.8188 116.883 28.5286C116.229 27.2384 115.895 25.8095 115.895 24.0753C115.895 22.3412 116.215 20.8012 116.855 19.4555C117.495 18.1098 118.4 17.0694 119.569 16.3341C120.738 15.5849 122.13 15.2242 123.605 15.2242C125.081 15.2242 126.375 15.5433 127.488 16.1815C128.602 16.8196 129.437 17.7075 129.98 18.8451C130.536 19.9827 130.759 21.3007 130.676 22.7712H119.305V23.1458C119.305 25.532 119.792 27.4187 120.78 28.7922C121.768 30.1656 123.104 30.8593 124.788 30.8593C127.029 30.8593 128.727 29.5968 129.896 27.0997L130.731 27.4326ZM123.563 16.3341C122.394 16.3341 121.448 16.7919 120.724 17.7353C119.987 18.6648 119.541 19.9827 119.36 21.6891H127.196C127.252 19.9966 126.973 18.6786 126.333 17.7353C125.693 16.8058 124.733 16.3341 123.563 16.3341ZM138.26 31.3171L135.978 31.1506C135.755 30.998 135.644 30.7899 135.644 30.554C135.644 30.3321 135.741 30.0824 135.95 29.8188L139.652 24.8522L143.117 29.8465C143.271 30.0685 143.354 30.3043 143.354 30.554C143.354 30.8454 143.229 31.0396 142.978 31.1506L140.765 31.3171V32.1495H149.38V31.3171L147.627 31.0812L141.642 22.7989L146.221 16.6947L147.933 16.4867V15.6543H142.088V16.4867L144.008 16.6254C144.231 16.7641 144.342 16.9445 144.342 17.1942C144.342 17.4162 144.245 17.6659 144.036 17.9295L141.072 21.9804L138.316 17.985C138.177 17.7352 138.107 17.5133 138.107 17.319C138.107 17.0277 138.218 16.8057 138.441 16.6531L140.292 16.4867V15.6543H132.081V16.4867L133.834 16.7225L139.081 24.0614L133.695 31.0674L132.011 31.3032V32.1356H138.26V31.3171ZM156.393 31.2207L158.244 31.3178V32.1502H150.311V31.3178L152.259 31.2207C152.593 30.8739 152.76 30.4854 152.76 30.0415V17.7776C152.76 17.3198 152.593 16.9313 152.259 16.5984L150.311 16.5013V15.6689H158.244V16.5013L156.393 16.5984C156.059 16.9452 155.892 17.3337 155.892 17.7776V23.0355H162.99V17.7776C162.99 17.3198 162.809 16.9313 162.447 16.5984L160.596 16.5013V15.6689H168.529V16.5013L166.581 16.5984C166.247 16.9452 166.08 17.3337 166.08 17.7776V30.0415C166.08 30.4993 166.247 30.8878 166.581 31.2207L168.529 31.3178V32.1502H160.596V31.3178L162.447 31.2207C162.809 30.8739 162.99 30.4854 162.99 30.0415V24.076H155.892V30.0415C155.892 30.4993 156.059 30.8878 156.393 31.2207ZM174.6 31.5256C175.797 32.2332 177.189 32.58 178.748 32.58C180.306 32.58 181.74 32.2193 182.951 31.484C184.162 30.7626 185.108 29.736 185.776 28.418C186.444 27.1001 186.778 25.574 186.778 23.826C186.778 22.078 186.444 20.5936 185.79 19.2895C185.122 17.9854 184.203 16.9727 183.02 16.2651C181.837 15.5576 180.446 15.2108 178.887 15.2108C177.328 15.2108 175.881 15.5715 174.67 16.3068C173.445 17.0282 172.498 18.0548 171.83 19.3727C171.162 20.6907 170.828 22.2167 170.828 23.9647C170.828 25.7128 171.162 27.1972 171.817 28.5013C172.485 29.8054 173.403 30.8181 174.614 31.5118L174.6 31.5256ZM175.407 18.2351C176.201 16.9588 177.342 16.3206 178.817 16.3206C180.292 16.3206 181.434 16.9727 182.213 18.2767C182.993 19.5808 183.396 21.4953 183.396 23.9925C183.396 26.4897 183.006 28.2793 182.213 29.5556C181.434 30.832 180.292 31.4701 178.817 31.4701C177.342 31.4701 176.201 30.8181 175.407 29.514C174.614 28.2099 174.21 26.2954 174.21 23.7983C174.21 21.3011 174.614 19.5115 175.407 18.2351ZM194.599 18.1799C194.446 21.5788 194.167 24.3118 193.778 26.4067L193.806 26.4344C193.416 28.5293 192.873 30.0553 192.177 31.0265C191.481 31.9976 190.591 32.4831 189.519 32.4831C189.254 32.4831 188.962 32.4554 188.642 32.4138L188.572 29.2646C188.753 29.2923 189.046 29.2923 189.449 29.2923C190.312 29.2923 191.022 28.9455 191.579 28.2241C192.121 27.5165 192.553 26.3789 192.873 24.839C193.179 23.2852 193.402 21.232 193.541 18.6655C193.569 17.6388 193.318 16.9729 192.803 16.6538L190.479 16.5151V15.6827H205.204V16.5151L203.256 16.6122C202.922 16.9591 202.755 17.3475 202.755 17.7914V30.0553C202.755 30.5131 202.922 30.9016 203.256 31.2345L205.204 31.3317V32.1641H197.16V31.3317L199.108 31.2345C199.442 30.8877 199.609 30.4993 199.609 30.0553V16.7093H194.668L194.599 18.1799ZM219.621 31.4975C220.832 30.7761 221.779 29.7494 222.447 28.4315C223.115 27.1135 223.463 25.5875 223.463 23.8395C223.463 22.0914 223.129 20.607 222.475 19.3029C221.807 17.9989 220.888 16.9861 219.705 16.2786C218.522 15.5711 217.144 15.2242 215.571 15.2242C213.999 15.2242 212.579 15.5849 211.354 16.3202C210.129 17.0416 209.183 18.0682 208.515 19.3862C207.847 20.7041 207.513 22.2302 207.513 23.9782C207.513 25.7262 207.847 27.2107 208.501 28.5147C209.169 29.8188 210.088 30.8316 211.299 31.5252C212.496 32.2327 213.887 32.5796 215.446 32.5796C217.005 32.5796 218.438 32.2189 219.649 31.4836L219.621 31.4975ZM212.064 29.5136C211.271 28.2095 210.867 26.295 210.867 23.7979C210.867 21.3007 211.271 19.511 212.064 18.2347C212.857 16.9584 213.999 16.3202 215.474 16.3202C216.949 16.3202 218.09 16.9722 218.87 18.2763C219.649 19.5804 220.053 21.4949 220.053 23.9921C220.053 26.4892 219.663 28.2789 218.87 29.5552C218.09 30.8316 216.949 31.4697 215.474 31.4697C213.999 31.4697 212.857 30.8177 212.064 29.5136ZM225.733 16.4866V15.6542V15.6404H238.982C238.982 17.541 239.066 19.289 239.247 20.8983L238.467 21.0648L236.185 16.6392H231.314V30.0546C231.314 30.5263 231.481 30.9009 231.815 31.1644L234.167 31.3032V32.1356H225.733V31.3032L227.681 31.2061C228.015 30.8592 228.182 30.4708 228.182 30.0268V17.763C228.182 17.3052 228.015 16.9167 227.681 16.5837L225.733 16.4866ZM246.288 29.4165V17.763C246.288 17.319 246.469 16.9306 246.831 16.5838L248.682 16.4867V15.6543H240.749V16.4867L242.698 16.5838C243.032 16.9167 243.199 17.3052 243.199 17.763V30.0269C243.199 30.4708 243.032 30.8593 242.698 31.2061L240.749 31.3032V32.1356H245.954L253.79 18.3179V30.013C253.79 30.4569 253.623 30.8454 253.289 31.1922L251.438 31.2893V32.1217H259.343V31.2893L257.395 31.1922C257.061 30.8593 256.894 30.4708 256.894 30.013V17.7491C256.894 17.3052 257.061 16.9167 257.395 16.5699L259.343 16.4728V15.6404H254.124L246.288 29.4165ZM278.038 16.5983L279.986 16.5013V15.6689H274.767L266.931 29.4449V17.7776C266.931 17.3337 267.112 16.9452 267.474 16.5984L269.325 16.5013V15.6689H261.392V16.5013L263.34 16.5984C263.674 16.9313 263.841 17.3198 263.841 17.7776V30.0415C263.841 30.4854 263.674 30.8739 263.34 31.2207L261.392 31.3178V32.1502H266.611L274.447 18.3325V30.0276C274.447 30.4716 274.28 30.86 273.946 31.2068L272.094 31.3039V32.1363H280V31.3039L278.051 31.2068C277.717 30.8739 277.55 30.4854 277.55 30.0276V17.7637C277.55 17.3257 277.713 16.9417 278.038 16.5983ZM117.215 65.9315L114.32 65.7928C113.958 65.5708 113.777 65.2101 113.777 64.7246V45.4131C113.777 44.9414 113.944 44.5946 114.278 44.3726L116.7 44.2339V43.3599H98.1755V44.2339L100.862 44.4004C101.112 44.5807 101.307 44.9137 101.474 45.3992C101.627 45.8848 101.697 46.523 101.683 47.3137C101.46 52.0445 100.931 55.929 100.124 58.9672C99.3029 61.9916 98.1616 64.2945 96.7141 65.8622L94.7935 65.9593C94.8074 66.5003 94.8213 67.2911 94.8213 68.3455C94.8213 70.0935 94.7517 71.7999 94.6125 73.4785L95.3502 73.5756L98.1755 66.8333H113.944L116.672 73.5756L117.382 73.4785C117.243 71.5363 117.173 69.6634 117.173 67.8738V67.8731C117.173 67.0272 117.173 66.3753 117.201 65.9315H117.215ZM110.451 65.7651H98.1755C99.4977 64.2251 100.542 61.9222 101.307 58.8423C102.073 55.7764 102.587 51.7809 102.852 46.8975L102.991 44.442H110.465V65.7651H110.451ZM127.571 49.9071C129.143 49.9071 130.521 50.2539 131.704 50.9614V50.9475C132.887 51.6551 133.806 52.6678 134.474 53.9719C135.128 55.276 135.462 56.7604 135.462 58.5084C135.462 60.2565 135.128 61.7825 134.46 63.1005C133.792 64.4184 132.845 65.445 131.635 66.1664C130.424 66.9017 128.99 67.2624 127.431 67.2624C125.873 67.2624 124.481 66.9156 123.284 66.208C122.073 65.5144 121.141 64.5016 120.486 63.1976C119.832 61.8935 119.498 60.4091 119.498 58.661C119.498 56.913 119.846 55.387 120.514 54.069C121.182 52.7511 122.129 51.7244 123.353 51.003C124.564 50.2678 125.998 49.9071 127.571 49.9071ZM127.501 66.1664C128.976 66.1664 130.118 65.5283 130.897 64.2519C131.69 62.9756 132.08 61.186 132.08 58.6888C132.08 56.1916 131.676 54.2771 130.897 52.973C130.118 51.669 128.976 51.0169 127.501 51.0169C126.026 51.0169 124.884 51.6551 124.091 52.9314C123.298 54.2077 122.894 55.9974 122.894 58.4946C122.894 60.9917 123.298 62.9062 124.091 64.2103C124.884 65.5144 126.026 66.1664 127.501 66.1664ZM149.157 57.9953V58.1786C150.361 58.4429 151.275 58.9275 151.899 59.6323C152.539 60.3259 152.845 61.2 152.845 62.2266C152.845 63.6555 152.275 64.7792 151.161 65.5977C150.034 66.4163 148.461 66.8186 146.415 66.8186H137.744V65.9862L139.693 65.8891C140.027 65.5561 140.194 65.1677 140.194 64.7237V52.4599C140.194 52.002 140.027 51.6136 139.693 51.2806L137.744 51.1835V50.3511H145.886C147.89 50.3511 149.408 50.698 150.465 51.4194C151.523 52.1408 152.052 53.1258 152.052 54.3744C152.052 55.2484 151.801 55.9975 151.314 56.6079C150.813 57.2184 150.103 57.6762 149.157 57.9953ZM143.325 57.6345V51.3778H145.733C146.749 51.3778 147.515 51.6552 148.057 52.2101C148.6 52.7651 148.865 53.5558 148.865 54.5547C148.865 55.5536 148.6 56.3027 148.057 56.8299C147.515 57.371 146.763 57.6345 145.775 57.6345H143.325ZM148.726 64.8902C148.141 65.4868 147.306 65.792 146.234 65.792H143.312V58.6889H146.206C147.306 58.6889 148.141 59.008 148.726 59.6462C149.31 60.2843 149.602 61.1722 149.602 62.3098C149.602 63.4474 149.31 64.2798 148.726 64.8902ZM160.458 63.4616C161.447 64.835 162.783 65.5287 164.467 65.5287C166.708 65.5287 168.406 64.2801 169.575 61.769L170.41 62.102C168.976 65.5426 166.624 67.2628 163.381 67.2628C161.864 67.2628 160.514 66.916 159.331 66.2085C158.162 65.5148 157.243 64.5021 156.575 63.2119C155.921 61.9217 155.587 60.5066 155.587 58.7586C155.587 57.0106 155.907 55.4706 156.548 54.1249C157.174 52.7792 158.078 51.7387 159.248 51.0035C160.417 50.2682 161.808 49.8936 163.284 49.8936C164.759 49.8936 166.053 50.2127 167.167 50.8509C168.28 51.489 169.115 52.3769 169.658 53.5145C170.215 54.6521 170.438 55.9701 170.354 57.4406H158.983V57.8152C158.983 60.2014 159.47 62.0881 160.458 63.4616ZM163.256 51.0173C162.087 51.0173 161.14 51.4752 160.417 52.4185C159.679 53.348 159.234 54.6799 159.053 56.3724H166.888C166.958 54.6799 166.666 53.3619 166.026 52.4185C165.385 51.489 164.425 51.0173 163.256 51.0173ZM186.582 50.9475C185.566 50.2539 184.397 49.9071 183.061 49.9071C182.17 49.9071 181.307 50.1013 180.472 50.4897C179.637 50.8782 178.663 51.5718 177.508 52.5846V50.0735C176.144 50.2539 174.237 50.3371 171.787 50.3371V51.114L174.474 51.6135V72.4371C174.474 72.881 174.307 73.2695 173.972 73.6163L172.024 73.7134V74.5458H180.458V73.7134L178.134 73.5747C177.772 73.2833 177.591 72.9226 177.591 72.4648V65.9999C178.691 66.8462 180.041 67.2763 181.655 67.2763C183.27 67.2763 184.689 66.8878 185.914 66.1248C187.139 65.3618 188.085 64.2797 188.753 62.9062C189.421 61.5328 189.755 59.9512 189.755 58.1616C189.755 56.5523 189.477 55.1234 188.92 53.8748C188.364 52.6262 187.57 51.6551 186.554 50.9614L186.582 50.9475ZM185.204 64.1687C184.411 65.4589 183.284 66.097 181.822 66.097C180.528 66.097 179.498 65.6392 178.746 64.7236C177.995 63.808 177.619 62.5316 177.619 60.9085V53.7361C178.496 52.973 179.219 52.4597 179.79 52.1823C180.361 51.9048 181.001 51.7661 181.697 51.7661C183.27 51.7661 184.439 52.3765 185.232 53.6112C186.025 54.8459 186.415 56.5523 186.415 58.7443C186.415 61.0888 186.011 62.9062 185.218 64.1964L185.204 64.1687ZM197.619 52.4464V64.1138L197.633 64.0999L205.468 50.3238H210.688V51.1562L208.739 51.2533C208.405 51.6002 208.238 51.9886 208.238 52.4326V64.6964C208.238 65.1543 208.405 65.5427 208.739 65.8757L210.688 65.9728V66.8052H202.782V65.9728L204.633 65.8757C204.967 65.5288 205.134 65.1404 205.134 64.6964V53.0014L197.299 66.819H192.079V65.9867L194.028 65.8895C194.362 65.5427 194.529 65.1543 194.529 64.7103V52.4464C194.529 51.9886 194.362 51.6002 194.028 51.2672L192.079 51.1701V50.3377H200.013V51.1701L198.161 51.2672C197.8 51.6141 197.619 52.0025 197.619 52.4464ZM216.002 51.5862C214.875 52.4186 214.304 53.5562 214.304 55.0129C214.304 56.1366 214.652 57.0522 215.348 57.8014C216.044 58.5367 217.046 59.0361 218.382 59.3136L215.153 63.8778C214.638 64.6131 214.165 65.1403 213.761 65.4455C213.344 65.7646 212.857 65.9588 212.3 66.0559V66.8606H216.573L221.514 59.5217H223.727V64.7518C223.727 65.1958 223.56 65.5842 223.226 65.9172L221.277 66.0143V66.8467H229.322V66.0143L227.373 65.9172C227.039 65.5842 226.872 65.1958 226.872 64.7518V52.488C226.872 52.044 227.039 51.6417 227.373 51.3087L229.322 51.2116V50.3792H220.818C218.758 50.3792 217.157 50.7954 216.03 51.6139L216.002 51.5862ZM223.727 51.3781V58.4534H221.068C219.927 58.4534 219.05 58.1343 218.466 57.51C217.867 56.8857 217.575 55.9979 217.575 54.8603C217.575 53.7227 217.867 52.8903 218.452 52.2799C219.036 51.6694 219.899 51.3781 221.04 51.3781H223.727ZM22.1848 71.7022L22.338 71.7717C22.2893 71.7509 22.237 71.7265 22.1848 71.7022Z" fill="white"/>
<path d="M2.15726 25.3516C0.765481 29.2499 0 33.4396 0 37.8097C0 44.4827 1.78148 50.7395 4.88516 56.15L16.0194 47.0353L2.15726 25.3516Z" fill="white"/>
<path d="M37.0619 0.852295C32.9283 0.852295 28.9618 1.53208 25.2457 2.78067L24.5776 40.0163L61.3485 9.8976C54.835 4.2651 46.359 0.852295 37.0619 0.852295Z" fill="white"/>
<path d="M20.6545 43.2343L11.3852 11.1733C10.5501 11.978 9.75681 12.8104 9.00525 13.6705L19.0957 44.4967L20.6545 43.2204V43.2343Z" fill="white"/>
<path d="M18.1622 45.2599L5.51093 18.4153C4.99597 19.2477 4.50885 20.1217 4.06348 20.9957L16.9792 46.231L18.1762 45.2599H18.1622Z" fill="white"/>
<path d="M23.5761 40.8344L19.5539 5.23584C18.4961 5.80464 17.4662 6.42893 16.4641 7.09484L21.8642 42.2495L23.5761 40.8483V40.8344Z" fill="white"/>
<path d="M67.7516 17.0832L6.56885 58.7999C7.12556 59.6045 7.71011 60.3814 8.32249 61.1306C10.7164 59.6045 68.1831 23.0625 70.396 21.6475C69.6166 20.0521 68.7259 18.526 67.7377 17.0693L67.7516 17.0832Z" fill="white"/>
<path d="M37.0621 74.7394C48.5861 74.7394 58.8714 69.4954 65.6772 61.2825L22.1144 71.6041C26.6933 73.6157 31.7455 74.7394 37.0621 74.7394ZM23.7706 72.2284L23.6593 72.1868C23.3113 72.048 22.9634 71.9093 22.6293 71.7567C23.0051 71.9232 23.3948 72.0758 23.7845 72.2284H23.7706Z" fill="white"/>
<path d="M10.5499 63.6147C11.3293 64.4055 12.1505 65.1685 12.9855 65.8899L74.0849 36.2013C74.0014 34.2313 73.7648 32.2891 73.3751 30.4023L10.5499 63.6147Z" fill="white"/>
<path d="M18.6488 69.8571L71.0216 52.585C71.9541 50.4486 72.6918 48.2011 73.2206 45.8843L15.7539 68.012C16.6864 68.664 17.6606 69.2883 18.6488 69.8571Z" fill="white"/>
</svg>
